<?xml version="1.0" encoding="UTF-8" standalone="no"?>
<svg width="14px" height="14px" viewBox="0 0 14 14" version="1.1" xmlns="http://www.w3.org/2000/svg" xmlns:xlink="http://www.w3.org/1999/xlink">
    <!-- Generator: Sketch 39.1 (31720) - http://www.bohemiancoding.com/sketch -->
    <title>expand-arrows-white</title>
    <desc>Created with Sketch.</desc>
    <defs></defs>
    <g id="Page-1" stroke="none" stroke-width="1" fill="none" fill-rule="evenodd">
        <g id="expand-arrows-white" fill="#FFF">
            <polygon id="Shape" transform="translate(2.850000, 2.850000) rotate(180.000000) translate(-2.850000, -2.850000) " points="4.3 5.7 5.7 4.3 2.7 1.3 4 -4.4408921e-16 -1.77635684e-15 -4.4408921e-16 -1.77635684e-15 4 1.3 2.7"></polygon>
            <polygon id="Shape" transform="translate(2.850000, 11.150000) rotate(-180.000000) translate(-2.850000, -11.150000) " points="5.7 9.7 4.3 8.3 1.3 11.3 4.88498131e-15 10 4.88498131e-15 14 4 14 2.7 12.7"></polygon>
            <polygon id="Shape" transform="translate(11.150000, 11.150000) rotate(-180.000000) translate(-11.150000, -11.150000) " points="9.7 8.3 8.3 9.7 11.3 12.7 10 14 14 14 14 10 12.7 11.3"></polygon>
            <polygon id="Shape" transform="translate(11.150000, 2.850000) rotate(180.000000) translate(-11.150000, -2.850000) " points="10 -4.4408921e-15 11.3 1.3 8.3 4.3 9.7 5.7 12.7 2.7 14 4 14 -5.32907052e-15"></polygon>
        </g>
    </g>
</svg>